<svg aria-hidden="true" style="position: absolute; width: 0; height: 0; overflow: hidden;" version="1.1" xmlns="http://www.w3.org/2000/svg" xmlns:xlink="http://www.w3.org/1999/xlink">
<defs>
<symbol id="icon-geopoint" viewBox="0 0 32 32">
<path fill="#fff" style="fill: var(--color1, #fff)" d="M13.111 18.667c3.554 0 6.444-2.791 6.444-6.222s-2.89-6.222-6.444-6.222c-3.554 0-6.444 2.791-6.444 6.222s2.89 6.222 6.444 6.222zM13.111 9.333c1.777 0 3.222 1.395 3.222 3.111s-1.445 3.111-3.222 3.111c-1.777 0-3.222-1.395-3.222-3.111s1.445-3.111 3.222-3.111z"></path>
<path fill="#fff" style="fill: var(--color1, #fff)" d="M12.193 31.262c0.268 0.191 0.589 0.293 0.918 0.293s0.65-0.103 0.918-0.293c0.481-0.339 11.794-8.479 11.748-18.64 0-6.96-5.683-12.622-12.667-12.622s-12.667 5.663-12.667 12.614c-0.046 10.169 11.267 18.309 11.748 18.648zM13.111 3.156c5.239 0 9.5 4.246 9.5 9.475 0.033 7.002-6.948 13.29-9.5 15.352-2.551-2.064-9.533-8.353-9.5-15.36 0-5.221 4.261-9.467 9.5-9.467z"></path>
</symbol>
<symbol id="icon-telegram" viewBox="0 0 32 32">
<path fill="#0d5c63" style="fill: var(--color2, #0d5c63)" d="M30.805 0.524c-0.175-0.182-0.397-0.307-0.639-0.362s-0.494-0.037-0.726 0.051l-28.601 10.816c-0.247 0.097-0.459 0.27-0.609 0.496s-0.23 0.494-0.23 0.768c0 0.274 0.080 0.542 0.23 0.768s0.362 0.399 0.609 0.496l12.48 5.192 4.992 12.98c0.094 0.245 0.255 0.457 0.462 0.608s0.454 0.236 0.708 0.244c0.263-0.006 0.518-0.094 0.731-0.253s0.376-0.382 0.465-0.639l10.4-29.745c0.089-0.239 0.11-0.5 0.062-0.751s-0.164-0.483-0.335-0.669zM19.482 27.443l-3.627-9.464 6.227-6.476-1.833-1.906-6.279 6.53-9.048-3.826 22.79-8.558-8.229 23.701z"></path>
</symbol>
<symbol id="icon-phone" viewBox="0 0 32 32">
<path fill="#0d5c63" style="fill: var(--color2, #0d5c63)" d="M25.302 17.331c-0.156-0.157-0.342-0.281-0.546-0.365s-0.423-0.128-0.644-0.128c-0.221 0-0.44 0.044-0.644 0.128s-0.39 0.209-0.546 0.365l-2.684 2.684c-1.244-0.37-3.566-1.212-5.038-2.684s-2.313-3.793-2.684-5.038l2.684-2.684c0.156-0.156 0.281-0.342 0.365-0.546s0.128-0.423 0.128-0.644c0-0.221-0.044-0.44-0.128-0.644s-0.209-0.39-0.365-0.546l-6.735-6.735c-0.156-0.156-0.342-0.281-0.546-0.365s-0.423-0.128-0.644-0.128c-0.221 0-0.44 0.044-0.644 0.128s-0.39 0.209-0.546 0.365l-4.566 4.566c-0.64 0.64-1 1.519-0.987 2.416 0.039 2.398 0.673 10.725 7.237 17.289s14.891 7.196 17.29 7.237h0.047c0.889 0 1.729-0.35 2.366-0.987l4.566-4.566c0.157-0.156 0.281-0.342 0.365-0.546s0.128-0.423 0.128-0.644c0-0.221-0.044-0.44-0.128-0.644s-0.209-0.39-0.365-0.546l-6.735-6.737zM25.088 28.632c-2.101-0.035-9.291-0.599-14.94-6.25-5.667-5.667-6.216-12.882-6.25-14.941l3.376-3.376 4.354 4.354-2.177 2.177c-0.198 0.198-0.343 0.442-0.423 0.71s-0.092 0.552-0.035 0.826c0.040 0.194 1.029 4.785 3.824 7.58s7.387 3.783 7.58 3.824c0.274 0.059 0.558 0.048 0.826-0.032s0.512-0.226 0.709-0.424l2.179-2.177 4.354 4.354-3.378 3.376z"></path>
</symbol>
<symbol id="icon-robot" viewBox="0 0 34 32">
<path fill="#737373" style="fill: var(--color3, #737373)" d="M29.776 12.345c-1.050 0-1.974 0.436-2.653 1.118-2.499-1.736-5.865-2.854-9.596-2.973l1.939-8.773 6.173 1.392c0 1.518 1.232 2.756 2.744 2.756 1.54 0 2.779-1.272 2.779-2.791s-1.232-2.791-2.779-2.791c-1.078 0-2.009 0.654-2.471 1.546l-6.817-1.518c-0.343-0.091-0.679 0.155-0.77 0.499l-2.128 9.672c-3.702 0.155-7.034 1.272-9.54 3.009-0.679-0.71-1.638-1.146-2.688-1.146-3.891 0-5.165 5.244-1.603 7.036-0.126 0.555-0.182 1.146-0.182 1.736 0 5.891 6.607 10.663 14.719 10.663 8.147 0 14.754-4.773 14.754-10.663 0-0.59-0.063-1.209-0.217-1.764 3.492-1.8 2.205-7.008-1.666-7.008zM8.016 19.754c0-1.546 1.232-2.791 2.779-2.791 1.512 0 2.744 1.237 2.744 2.791 0 1.518-1.232 2.756-2.744 2.756-1.54 0.007-2.779-1.237-2.779-2.756zM23.015 26.326c-2.548 2.559-9.736 2.559-12.283 0-0.28-0.246-0.28-0.682 0-0.963 0.245-0.246 0.679-0.246 0.924 0 1.946 2.003 8.399 2.039 10.428 0 0.245-0.246 0.679-0.246 0.924 0 0.287 0.281 0.287 0.717 0.007 0.963zM22.959 22.516c-1.512 0-2.744-1.237-2.744-2.756 0-1.546 1.232-2.791 2.744-2.791 1.54 0 2.779 1.237 2.779 2.791-0.007 1.511-1.239 2.756-2.779 2.756z"></path>
</symbol>
<symbol id="icon-aws" viewBox="0 0 53 32">
<path fill="#737373" style="fill: var(--color3, #737373)" d="M15.181 11.677c-0.059 1.848 0.872 2.666 0.895 3.186-0.011 0.106-0.047 0.207-0.106 0.296s-0.138 0.163-0.231 0.215l-1.053 0.731c-0.136 0.095-0.297 0.149-0.463 0.157-0.035-0.002-0.674 0.149-1.685-2.089-0.617 0.764-1.402 1.377-2.295 1.794s-1.87 0.625-2.857 0.609c-1.34 0.073-4.97-0.754-4.783-4.586-0.131-3.123 2.803-5.063 5.836-4.899 0.584 0.002 1.777 0.030 3.866 0.512v-1.274c0.221-2.159-1.21-3.834-3.687-3.582-0.197 0.001-1.596-0.041-3.772 0.825-0.606 0.276-0.683 0.23-0.885 0.23-0.61 0-0.359-1.752-0.242-1.974 0.429-0.522 2.951-1.497 5.426-1.483 1.655-0.145 3.301 0.361 4.582 1.41 0.521 0.578 0.918 1.254 1.168 1.988s0.347 1.511 0.286 2.284l-0.001 5.653zM8.070 14.319c2.668-0.038 3.798-1.629 4.056-2.486 0.202-0.82 0.169-1.339 0.169-2.235-0.796-0.189-1.941-0.396-3.255-0.397-1.247-0.093-3.523 0.459-3.434 2.632-0.102 1.37 0.915 2.562 2.465 2.487zM22.133 16.2c-0.647 0.059-0.948-0.397-1.043-0.846l-4.098-13.433c-0.080-0.227-0.133-0.461-0.158-0.7-0.015-0.099 0.010-0.199 0.069-0.279s0.149-0.134 0.248-0.149c0.020-0.003-0.175 0 1.831 0 0.722-0.072 0.958 0.492 1.033 0.846l2.939 11.49 2.728-11.49c0.044-0.263 0.242-0.903 1.053-0.835h1.412c0.179-0.015 0.914-0.041 1.043 0.846l2.75 11.637 3.034-11.637c0.039-0.178 0.224-0.928 1.043-0.846h1.623c0.070-0.011 0.506-0.066 0.432 0.7-0.035 0.151 0.281-0.87-4.34 13.861-0.095 0.45-0.397 0.905-1.043 0.846h-1.538c-0.9 0.094-1.029-0.788-1.043-0.877l-2.729-11.188-2.697 11.176c-0.013 0.089-0.142 0.971-1.043 0.877l-1.506 0.001zM44.636 16.659c-0.484 0.001-2.791-0.024-4.72-1.003-0.192-0.081-0.356-0.216-0.47-0.389s-0.174-0.376-0.172-0.583v-0.877c0-0.689 0.51-0.563 0.727-0.48 0.826 0.331 1.356 0.582 2.371 0.783 3.016 0.614 4.342-0.188 4.667-0.365 1.082-0.637 1.168-2.095 0.432-2.851-0.862-0.717-1.274-0.744-4.372-1.713-0.382-0.105-3.596-1.11-3.603-4.272-0.050-2.304 2.061-4.583 5.72-4.565 1.043-0.001 3.82 0.337 4.572 1.274 0.111 0.171 0.166 0.371 0.158 0.574v0.825c0 0.362-0.133 0.543-0.401 0.543-0.634-0.070-1.76-0.911-4.045-0.877-0.567-0.029-3.282 0.074-3.16 2.037-0.035 1.547 2.19 2.127 2.444 2.194 3 0.895 4.003 1.043 5.194 2.413 1.41 1.815 0.65 3.941 0.358 4.523-1.57 3.059-5.63 2.81-5.699 2.808zM47.944 25.214c-5.762 4.22-14.127 6.466-21.269 6.466-9.637 0.063-18.949-3.45-26.106-9.85-0.537-0.481-0.063-1.139 0.59-0.773 7.939 4.503 16.928 6.869 26.074 6.863 6.83-0.036 13.586-1.41 19.879-4.043 0.969-0.408 1.791 0.636 0.833 1.336zM50.346 22.498c-0.737-0.94-4.878-0.439-6.732-0.219-0.559 0.063-0.653-0.418-0.147-0.773 3.297-2.298 8.712-1.64 9.334-0.867 0.621 0.773-0.169 6.152-3.255 8.722-0.474 0.397-0.927 0.188-0.717-0.335 0.694-1.734 2.253-5.588 1.516-6.528z"></path>
</symbol>
<symbol id="icon-stripe" viewBox="0 0 77 32">
<path fill="#737373" style="fill: var(--color3, #737373)" d="M19.762 2.823l-5.186 1.089-0.024 16.859c0 3.114 2.371 5.126 5.521 5.126 1.749 0 3.030-0.32 3.737-0.698v-4.002c-0.683 0.272-4.036 1.243-4.036-1.859v-7.482h4.036v-4.475h-4.036l-0.012-4.558zM30.433 8.932l-0.323-1.551h-4.599v18.138h5.306v-12.206c1.258-1.634 3.377-1.314 4.060-1.101v-4.83c-0.719-0.249-3.198-0.71-4.443 1.551zM41.488 0.372l-5.342 1.125v4.286l5.342-1.125v-4.286zM5.378 12.721c0-0.817 0.695-1.137 1.809-1.148 1.617 0 3.677 0.485 5.294 1.35v-4.949c-1.761-0.687-3.521-0.959-5.282-0.959-4.312 0-7.186 2.226-7.186 5.943 0 5.825 8.084 4.878 8.084 7.388 0 0.971-0.85 1.291-2.036 1.291-1.761 0-4.036-0.722-5.821-1.681v4.736c1.976 0.841 3.976 1.196 5.809 1.196 4.419 0 7.462-1.871 7.462-5.659 0-6.263-8.132-5.138-8.132-7.506zM76.652 16.663c0-5.387-2.635-9.637-7.689-9.637s-8.132 4.25-8.132 9.602c0 6.334 3.629 9.258 8.803 9.258 2.539 0 4.443-0.568 5.893-1.362v-3.954c-1.449 0.722-3.114 1.16-5.222 1.16-2.072 0-3.892-0.722-4.132-3.185h10.408c0.024-0.272 0.072-1.373 0.072-1.883zM66.124 14.674c0-2.368 1.473-3.362 2.803-3.362 1.305 0 2.695 0.995 2.695 3.362h-5.497zM52.602 7.026c-2.084 0-3.425 0.971-4.168 1.646l-0.275-1.302h-4.683v24.247l5.318-1.113 0.012-5.943c0.767 0.556 1.904 1.326 3.761 1.326 3.809 0 7.282-2.747 7.282-9.424 0.012-6.109-3.509-9.436-7.246-9.436zM51.333 21.529c-1.246 0-1.988-0.45-2.503-0.995l-0.036-7.814c0.551-0.604 1.317-1.042 2.539-1.042 1.94 0 3.282 2.155 3.282 4.901 0.012 2.83-1.305 4.949-3.282 4.949zM36.158 25.519h5.342v-18.138h-5.342v18.138z"></path>
</symbol>
<symbol id="icon-robingood" viewBox="0 0 44 32">
<path fill="#737373" style="fill: var(--color3, #737373)" d="M43.52 0.062c-5.494 3.705-6.079 6.393-6.555 7.216-0.456 0.843-0.796 4.168-1.584 5.778-0.796 1.631-3.686 2.917-4.495 3.456-0.796 0.539-1.924 2.633-2.849 4.437-7.351-0.304-11.383 2.682-17.626 6.469 1.999-0.67 2.944-1.154 2.944-1.154 6.406-2.488 9.472-4.721 19.115-3.4 0.075 0 0.129 0.041 0.19 0.055 0.265 0.152 0.36 0.477 0.211 0.746l-3.665 6.621c-0.17 0.325-0.53 0.498-0.891 0.422-8.622-1.645-15.429 1.196-21.685 1.286-4.991 0.076-6.63-2.315-6.63-2.426 0-0.076 0.041-0.117 0.116-0.117 0 0 2.604 0 7.011-1.057 5.005-9.697 9.466-13.090 14.321-13.090 0 0 4.876 0 6.161 4.278 1.55-2.744 1.924-3.4 1.924-3.4 0.36-0.65 2.38-5.336 5.875-9.773 3.502-4.423 6.147-5.522 8.112-6.345z"></path>
</symbol>
<symbol id="icon-lya" viewBox="0 0 46 32">
<path fill="#737373" style="fill: var(--color3, #737373)" d="M0.271 0.54h6.84v18.449c0 2.926 1.319 4.667 2.392 5.392-1.117 0.981-4.502 1.848-7.051-0.248-1.495-1.238-2.18-3.297-2.18-5.215v-18.378zM42.993 15.877v-1.945h2.093v-6.789h-2.295c-0.888-4.093-4.502-7.134-8.819-7.134-4.977 0-9.030 4.066-9.030 9.078v15.841c1.407 0.203 3.113-0.027 4.546-1.238 1.503-1.238 2.181-3.288 2.181-5.215v-0.592h3.411v-6.789h-3.411v-2.060c0-3.059 4.59-3.059 4.59 0v6.816c0 5.003 4.044 9.078 9.030 9.078v-6.762c-1.275 0-2.295-1.034-2.295-2.289zM17.117 7.125v9.989c0 1.361-2.093 1.361-2.093 0v-9.989h-6.753v11.73c0 2.104 0.703 4.773 3.957 5.649 3.253 0.866 5.117-0.937 5.117-0.937-0.185 1.185-1.275 2.060-3.069 2.236-1.363 0.141-3.095-0.318-3.957-0.69v6.214c2.207 0.663 4.528 0.866 6.823 0.415 4.141-0.804 6.753-4.278 6.753-8.911v-15.752h-6.779v0.044z"></path>
</symbol>
<symbol id="icon-hooli" viewBox="0 0 94 32">
<path fill="#737373" style="fill: var(--color3, #737373)" d="M21.262 29.646l5.636 0.117c-1.942-0.671-3.826-1.489-5.636-2.452v2.335zM29.752 28.872v0.773l-2.855 0.117c5.371 1.824 10.285 2.072 13.934 1.051-2.928 0.029-6.739-0.379-11.080-1.941zM89.919 12.060c2.34 0 4.253-1.883 4.253-4.218s-1.898-3.576-4.253-3.576c-2.34 0-4.252 1.255-4.252 3.576s1.898 4.218 4.252 4.218zM85.652 29.646h8.52v-16.127h-8.52v16.127zM74.807 29.646h8.52v-28.503l-8.52 3.984v24.518zM70.246 12.22c-2.678-2.656-7.416-2.496-7.416-2.496s-4.753-0.161-7.416 2.496c-2.678 2.656-2.472 4.947-2.472 7.677s-0.206 5.006 2.472 7.662c2.678 2.656 7.416 2.496 7.416 2.496s4.753 0.161 7.416-2.496c2.678-2.656 2.472-4.933 2.472-7.662-0.015-2.744 0.191-5.035-2.472-7.677zM64.39 22.713c0 0.525-0.265 1.824-1.574 1.824s-1.574-1.299-1.574-1.824v-5.896c0-1.27 1.074-1.591 1.574-1.591s1.574 0.306 1.574 1.591v5.896zM48.763 12.22c-2.678-2.656-7.416-2.496-7.416-2.496s-4.738-0.161-7.416 2.496c-0.28 0.277-0.544 0.569-0.78 0.876-5.621-4.32-10.668-6.786-15.023-8.917v-3.021l-3.311 1.547c-8.005-3.225-13.096-2.656-14.317 0.015 0 0-3.664 4.787 9.093 16.17v10.756h8.52v-4.174c-0.956-0.613-1.913-1.27-2.855-1.985-2.178-1.635-4.032-3.152-5.65-4.583v-4.524c1.928 2.145 4.488 4.583 7.857 7.341l0.662 0.525v-4.349c0-1.007 0.25-2.656 1.589-2.656s1.56 1.007 1.56 2.189v7.107c2.649 1.781 5.488 3.225 8.49 4.32v-13.704c0-2.729-1.972-5.458-5.974-5.458-2.325-0.015-4.488 1.197-5.665 3.196v-7.925c6.165 3.050 12.345 6.786 14.7 8.508-1.501 2.131-1.368 4.101-1.368 6.378 0 2.729-0.206 5.006 2.472 7.662s7.416 2.496 7.416 2.496 4.753 0.16 7.416-2.496c2.678-2.656 2.457-4.933 2.457-7.662 0-2.7 0.221-4.991-2.457-7.633zM9.594 5.127v9.238c-7.166-7.954-5.724-11.092-5.179-11.544 1.986-1.664 5.518-1.168 9.476 0.306l-4.297 1.999zM42.921 22.713c0 0.525-0.265 1.824-1.574 1.824s-1.574-1.299-1.574-1.824v-5.896c0-1.27 1.074-1.591 1.574-1.591s1.574 0.306 1.574 1.591v5.896z"></path>
</symbol>
<symbol id="icon-speed" viewBox="0 0 39 32">
<path fill="#ff7b47" style="fill: var(--color4, #ff7b47)" d="M36.696 9.064l-2.46 3.7c1.186 2.366 1.767 4.99 1.69 7.635s-0.809 5.231-2.13 7.525h-27.72c-1.718-2.98-2.429-6.434-2.030-9.85s1.89-6.613 4.249-9.115c2.359-2.503 5.462-4.179 8.849-4.779s6.877-0.094 9.953 1.445l3.7-2.46c-3.767-2.416-8.235-3.498-12.69-3.074s-8.639 2.329-11.883 5.412-5.36 7.164-6.011 11.592c-0.65 4.428 0.203 8.945 2.424 12.83 0.349 0.605 0.85 1.107 1.454 1.458s1.288 0.538 1.986 0.542h27.7c0.705 0.003 1.398-0.181 2.009-0.532s1.119-0.858 1.471-1.468c1.843-3.192 2.767-6.832 2.672-10.516s-1.207-7.271-3.212-10.364l-0.020 0.020zM17.116 22.744c0.371 0.372 0.813 0.667 1.298 0.868s1.006 0.305 1.532 0.305 1.046-0.104 1.532-0.305c0.486-0.201 0.927-0.496 1.298-0.868l11.32-16.98-16.98 11.32c-0.372 0.371-0.667 0.813-0.868 1.298s-0.305 1.006-0.305 1.532 0.104 1.046 0.305 1.532c0.201 0.486 0.496 0.927 0.868 1.298z"></path>
</symbol>
<symbol id="icon-peopleOrange" viewBox="0 0 32 32">
<path fill="#ff7b47" style="fill: var(--color4, #ff7b47)" d="M18.386 8.29c-0.495 0.343-1.053 0.584-1.642 0.709s-1.197 0.131-1.788 0.019c-0.591-0.112-1.154-0.342-1.656-0.674s-0.933-0.761-1.267-1.262c-0.334-0.501-0.566-1.063-0.68-1.654s-0.111-1.199 0.012-1.788 0.362-1.148 0.703-1.644c0.341-0.496 0.778-0.919 1.284-1.245 1-0.66 2.22-0.898 3.395-0.661s2.207 0.929 2.873 1.926 0.91 2.216 0.679 3.391c-0.231 1.176-0.918 2.212-1.91 2.883h-0.002zM17.128 2.637c-0.247-0.178-0.527-0.304-0.823-0.371s-0.604-0.074-0.903-0.020-0.585 0.168-0.839 0.334c-0.254 0.167-0.473 0.383-0.642 0.635s-0.286 0.537-0.343 0.836c-0.057 0.299-0.053 0.606 0.011 0.903s0.187 0.579 0.362 0.827c0.175 0.249 0.398 0.46 0.657 0.62 0.499 0.303 1.096 0.402 1.666 0.276s1.070-0.467 1.394-0.952c0.325-0.485 0.45-1.077 0.35-1.652s-0.419-1.089-0.889-1.435v-0.002zM23.044 2.705c0.654-0.44 1.44-0.638 2.224-0.56s1.516 0.426 2.071 0.986c0.395 0.398 0.687 0.888 0.849 1.425s0.19 1.106 0.081 1.656c-0.109 0.55-0.351 1.066-0.706 1.501s-0.81 0.776-1.327 0.994c-0.621 0.26-1.306 0.328-1.966 0.196s-1.266-0.457-1.74-0.935c-0.356-0.358-0.629-0.791-0.799-1.266s-0.232-0.983-0.183-1.486c0.049-0.503 0.209-0.988 0.468-1.422s0.611-0.805 1.030-1.087l-0.002-0.002zM24.132 6.354c0.213 0.212 0.501 0.331 0.801 0.33 0.149-0 0.296-0.030 0.433-0.087s0.262-0.141 0.367-0.246c0.105-0.105 0.188-0.23 0.245-0.368s0.086-0.285 0.085-0.433-0.030-0.296-0.087-0.433c-0.057-0.137-0.141-0.262-0.246-0.367-0.211-0.212-0.496-0.334-0.796-0.34-0.149-0-0.298 0.029-0.436 0.086s-0.263 0.141-0.369 0.247-0.189 0.232-0.245 0.37c-0.057 0.138-0.085 0.287-0.084 0.436 0.001 0.302 0.119 0.591 0.331 0.807v-0.002zM4.965 26.024h4.103v2.278h-4.103c-0.718-0.006-1.405-0.297-1.909-0.809-0.506-0.514-0.789-1.206-0.789-1.927v-4.103c-0.305-0.010-0.605-0.082-0.882-0.212s-0.524-0.313-0.728-0.541c-0.216-0.219-0.386-0.479-0.499-0.766s-0.167-0.592-0.158-0.9v-4.946c0.007-1.070 0.431-2.092 1.179-2.852 0.746-0.75 1.754-1.179 2.811-1.185h4.171c-0.563 0.67-0.986 1.445-1.247 2.28h-2.924c-0.46 0.013-0.898 0.201-1.224 0.526-0.32 0.329-0.499 0.771-0.499 1.231v5.059h2.267v6.406c-0.005 0.062 0.002 0.124 0.022 0.183s0.051 0.113 0.092 0.159c0.091 0.070 0.202 0.11 0.317 0.113v0.004zM21.511 11.25c-0.371-0.374-0.812-0.672-1.298-0.876s-1.008-0.309-1.535-0.31h-5.621c-1.057 0.008-2.067 0.435-2.811 1.185-0.748 0.759-1.172 1.782-1.179 2.851v7.204c-0.003 0.618 0.232 1.214 0.657 1.664 0.204 0.227 0.451 0.411 0.728 0.54s0.576 0.201 0.881 0.212v5.265c-0.002 0.359 0.067 0.716 0.203 1.048s0.337 0.635 0.59 0.89c0.408 0.381 0.922 0.628 1.473 0.707h4.533c0.638-0.084 1.222-0.4 1.64-0.888s0.642-1.114 0.627-1.757v-5.268c0.305-0.010 0.605-0.082 0.882-0.212s0.524-0.313 0.728-0.541c0.216-0.219 0.386-0.479 0.499-0.765s0.167-0.592 0.159-0.899v-7.203c0.002-1.065-0.413-2.088-1.156-2.852v0.002zM20.401 21.416h-2.267v7.571c-0.002 0.119-0.051 0.233-0.136 0.317-0.039 0.046-0.087 0.082-0.143 0.105s-0.115 0.034-0.175 0.030h-3.649c-0.118-0.006-0.231-0.055-0.314-0.139s-0.133-0.196-0.139-0.314v-7.571h-2.244v-7.317c0-0.46 0.179-0.902 0.499-1.231 0.326-0.325 0.764-0.513 1.224-0.526h5.621c0.343 0.006 0.678 0.112 0.961 0.306s0.505 0.465 0.637 0.783c0.086 0.212 0.129 0.44 0.125 0.669v7.317zM26.77 28.3h-4.103v-2.278h4.080c0.115-0.003 0.226-0.043 0.317-0.113 0.046-0.045 0.081-0.098 0.105-0.158s0.034-0.123 0.031-0.187v-6.406h2.267v-5.059c0.001-0.46-0.178-0.901-0.499-1.231-0.326-0.325-0.764-0.513-1.224-0.526h-2.924c-0.26-0.835-0.684-1.61-1.247-2.28h4.171c1.056 0.010 2.066 0.436 2.811 1.185 0.748 0.759 1.172 1.782 1.179 2.852v4.946c0 0.619-0.233 1.213-0.655 1.662-0.422 0.451-0.997 0.721-1.612 0.755v4.103c0 0.723-0.283 1.414-0.789 1.927-0.504 0.512-1.19 0.803-1.908 0.809zM6.801 2.129c-0.675-0.001-1.334 0.2-1.894 0.576s-0.994 0.911-1.248 1.536c-0.256 0.625-0.323 1.311-0.191 1.973s0.455 1.271 0.93 1.751c0.475 0.479 1.082 0.806 1.744 0.938s1.348 0.065 1.97-0.195c0.623-0.259 1.154-0.698 1.526-1.261s0.568-1.224 0.562-1.898c0-0.907-0.358-1.777-0.997-2.419-0.315-0.317-0.689-0.569-1.101-0.741s-0.855-0.261-1.301-0.261zM6.801 6.689c-0.149 0-0.298-0.029-0.436-0.086s-0.263-0.141-0.369-0.247c-0.105-0.106-0.189-0.232-0.245-0.37s-0.085-0.287-0.084-0.436c0.001-0.301 0.12-0.59 0.332-0.803s0.5-0.335 0.801-0.337c0.3 0.005 0.586 0.127 0.798 0.34s0.332 0.5 0.335 0.8c-0.001 0.301-0.12 0.59-0.332 0.803s-0.5 0.335-0.801 0.337z"></path>
</symbol>
<symbol id="icon-achievement" viewBox="0 0 24 32">
<path fill="#0d5c63" style="fill: var(--color2, #0d5c63)" d="M6.043 22.663c-0.541-0.543-0.259-0.39-1.563-0.741-0.592-0.159-1.112-0.466-1.582-0.832l-2.823 6.952c-0.273 0.673 0.237 1.404 0.96 1.377l3.278-0.126 2.255 2.393c0.498 0.527 1.371 0.363 1.645-0.31l3.239-7.976c-0.675 0.377-1.423 0.599-2.197 0.599-1.213 0-2.353-0.474-3.211-1.336zM23.818 28.043l-2.823-6.952c-0.47 0.367-0.991 0.673-1.582 0.832-1.311 0.353-1.024 0.199-1.563 0.741-0.858 0.861-1.999 1.336-3.212 1.336-0.774 0-1.523-0.222-2.197-0.599l3.239 7.976c0.273 0.673 1.147 0.837 1.645 0.31l2.256-2.393 3.279 0.126c0.723 0.028 1.233-0.704 0.96-1.377zM16.364 21.249c0.951-0.972 1.060-0.888 2.414-1.259 0.864-0.237 1.54-0.928 1.771-1.811 0.465-1.775 0.345-1.561 1.615-2.859 0.633-0.647 0.88-1.59 0.648-2.474-0.465-1.774-0.465-1.526 0-3.302 0.231-0.884-0.016-1.827-0.648-2.474-1.27-1.299-1.149-1.085-1.615-2.859-0.231-0.884-0.907-1.574-1.771-1.811-1.735-0.476-1.526-0.351-2.797-1.651-0.633-0.647-1.556-0.9-2.42-0.663-1.734 0.475-1.492 0.476-3.229 0-0.864-0.237-1.787 0.016-2.42 0.663-1.27 1.299-1.061 1.175-2.796 1.651-0.864 0.237-1.54 0.928-1.771 1.811-0.465 1.774-0.345 1.561-1.615 2.859-0.633 0.647-0.88 1.59-0.648 2.474 0.465 1.773 0.465 1.525 0 3.301-0.231 0.884 0.016 1.827 0.648 2.474 1.27 1.299 1.149 1.084 1.615 2.859 0.231 0.884 0.907 1.574 1.771 1.811 1.393 0.381 1.496 0.321 2.413 1.259 0.823 0.842 2.106 0.993 3.095 0.364 0.396-0.252 0.855-0.386 1.323-0.386s0.928 0.134 1.323 0.386c0.989 0.629 2.271 0.478 3.094-0.364zM6.076 10.996c0-3.314 2.628-6.001 5.87-6.001s5.87 2.687 5.87 6.001c0 3.314-2.628 6.001-5.87 6.001s-5.87-2.687-5.87-6.001z"></path>
</symbol>
<symbol id="icon-morePoint" viewBox="0 0 55 32">
<path fill="#0d5c63" style="fill: var(--color2, #0d5c63)" d="M49.315 14.036c-0.658 0.005-1.309 0.13-1.923 0.37l-6.56-5.468c0.161-0.596 0.276-1.215 0.276-1.866 0-3.861-3.048-6.964-6.839-6.964s-6.839 3.103-6.839 6.964c0 1.103 0.274 2.131 0.717 3.056l-7.958 9.577c-0.319-0.061-0.642-0.093-0.966-0.098-0.49 0-0.952 0.084-1.401 0.206l-7.012-7.14c0.123-0.454 0.205-0.925 0.205-1.423 0-3.087-2.44-5.571-5.471-5.571s-5.471 2.485-5.471 5.571c0 3.087 2.44 5.571 5.471 5.571 0.49 0 0.952-0.084 1.401-0.206l7.012 7.14c-0.131 0.463-0.2 0.942-0.205 1.423 0 3.087 2.44 5.571 5.472 5.571s5.471-2.485 5.471-5.571c0-0.66-0.131-1.281-0.336-1.869l7.969-9.588c0.621 0.184 1.264 0.315 1.942 0.315 1.080-0.006 2.142-0.274 3.1-0.783l6.563 5.468c-0.051 0.293-0.081 0.589-0.088 0.886 0 3.087 2.44 5.571 5.472 5.571s5.471-2.485 5.471-5.571c0-3.087-2.44-5.571-5.471-5.571z"></path>
</symbol>
<symbol id="icon-people" viewBox="0 0 34 32">
<path fill="#0d5c63" style="fill: var(--color2, #0d5c63)" d="M16.953 14.793c3.061 0 5.441-2.486 5.441-5.536s-2.494-5.423-5.555-5.423-5.441 2.486-5.441 5.423c0 3.051 2.494 5.536 5.555 5.536zM16.84 6.093c0.113 0 0.113 0 0 0 1.814 0 3.287 1.469 3.287 3.276s-1.474 3.164-3.287 3.164-3.174-1.469-3.174-3.164c0-1.808 1.474-3.276 3.174-3.276z"></path>
<path fill="#0d5c63" style="fill: var(--color2, #0d5c63)" d="M33.73 14.115c-2.154-1.921-4.988-2.938-7.935-2.825h-0.907c-0.227 0.904-0.567 1.695-1.020 2.373 0.68-0.113 1.247-0.113 1.927-0.113 2.154-0.113 4.308 0.565 6.008 1.808v8.135h2.267v-9.039l-0.34-0.339z"></path>
<path fill="#0d5c63" style="fill: var(--color2, #0d5c63)" d="M23.188 4.059c0.567-1.356 2.154-2.034 3.628-1.469 1.36 0.565 2.041 2.147 1.474 3.615-0.453 1.017-1.474 1.695-2.494 1.695-0.227 0-0.567 0-0.794-0.113 0.113 0.565 0.113 1.13 0.113 1.582v0.678c0.227 0 0.453 0.113 0.68 0.113 2.834 0 5.101-2.26 5.101-4.971 0-2.825-2.267-5.084-4.988-5.084-1.814 0-3.401 0.904-4.308 2.486 0.567 0.339 1.134 0.791 1.587 1.469z"></path>
<path fill="#0d5c63" style="fill: var(--color2, #0d5c63)" d="M10.265 13.776c-0.453-0.678-0.794-1.469-1.020-2.373h-0.907c-2.947-0.113-5.781 0.904-7.935 2.712l-0.34 0.339v9.039h2.267v-8.135c1.814-1.243 3.854-1.921 6.008-1.808 0.68 0 1.36 0.113 1.927 0.226z"></path>
<path fill="#0d5c63" style="fill: var(--color2, #0d5c63)" d="M8.338 10.048c0.227 0 0.453 0 0.68-0.113v-0.678c0-0.565 0-1.13 0.113-1.582-0.227 0.113-0.567 0.113-0.794 0.113-1.474 0-2.721-1.243-2.721-2.712s1.247-2.712 2.721-2.712c1.134 0 2.154 0.678 2.607 1.695 0.453-0.565 1.134-1.13 1.7-1.582-1.474-2.373-4.534-3.163-6.915-1.695s-3.174 4.519-1.7 6.892c0.907 1.469 2.494 2.373 4.308 2.373z"></path>
<path fill="#0d5c63" style="fill: var(--color2, #0d5c63)" d="M26.249 20.894l-0.227-0.339c-2.267-2.486-5.441-3.954-8.842-3.841-3.401-0.113-6.688 1.356-8.956 3.841l-0.227 0.339v8.587c0 1.017 0.794 1.921 1.927 1.921h14.51c1.020 0 1.927-0.904 1.927-1.921v-8.587h-0.113zM23.982 29.141h-13.717v-7.457c1.814-1.808 4.308-2.712 6.915-2.712 2.494-0.113 4.988 0.904 6.802 2.712v7.457z"></path>
</symbol>
<symbol id="icon-book" viewBox="0 0 40 32">
<path fill="#fff" style="fill: var(--color1, #fff)" d="M24.54 7.262h10.104v2.901h-10.104v-2.901z"></path>
<path fill="#fff" style="fill: var(--color1, #fff)" d="M24.54 14.516h10.104v2.901h-10.104v-2.901z"></path>
<path fill="#fff" style="fill: var(--color1, #fff)" d="M24.54 21.769h10.104v2.901h-10.104v-2.901z"></path>
<path fill="#fff" style="fill: var(--color1, #fff)" d="M37.53 0.009h-34.64c-0.765 0.001-1.499 0.307-2.040 0.851s-0.846 1.281-0.846 2.051v26.112c0.001 0.769 0.305 1.507 0.846 2.051s1.275 0.85 2.040 0.851h34.64c0.765-0.001 1.499-0.307 2.040-0.851s0.846-1.281 0.847-2.050v-26.112c-0.001-0.769-0.305-1.507-0.846-2.051s-1.275-0.85-2.040-0.851zM2.89 2.911h15.877v26.112h-15.877v-26.112zM21.654 29.023v-26.112h15.877l0.003 26.112h-15.88z"></path>
</symbol>
<symbol id="icon-shop" viewBox="0 0 32 32">
<path fill="#0d5c63" style="fill: var(--color2, #0d5c63)" opacity="0.15" d="M29.1 9.167h-26.2c-0.012 0-0.020 0.008-0.020 0.020v3.604c0 2.363 1.96 4.279 4.372 4.279 1.628 0 3.048-0.869 3.804-2.161 0.116-0.202 0.336-0.328 0.572-0.328s0.452 0.126 0.572 0.328c0.752 1.292 2.172 2.161 3.8 2.161 1.632 0 3.056-0.873 3.804-2.169 0.116-0.198 0.328-0.32 0.556-0.32h0.024c0.232 0 0.44 0.122 0.556 0.32 0.752 1.296 2.176 2.169 3.808 2.169 2.412 0 4.372-1.916 4.372-4.279v-3.604c0-0.012-0.008-0.020-0.020-0.020z"></path>
<path fill="#0d5c63" style="fill: var(--color2, #0d5c63)" d="M30.8 6.326v-5.061c0-0.699-0.572-1.264-1.28-1.264h-27.040c-0.708 0-1.28 0.565-1.28 1.264v5.061c-0.668 0.040-1.2 0.589-1.2 1.26v5.204c-0.003 0.956 0.193 1.903 0.576 2.782 0.172 0.403 0.384 0.782 0.624 1.142v13.632c0 0.695 0.572 1.264 1.28 1.264h27.040c0.708 0 1.28-0.565 1.28-1.264v-13.632c0.244-0.36 0.453-0.743 0.624-1.142 0.38-0.881 0.576-1.818 0.576-2.782v-5.204c0-0.672-0.532-1.221-1.2-1.26zM4.080 2.845h23.84v3.477h-23.84v-3.477zM18.56 28.769h-5.12v-4.113h5.12v4.113zM27.936 28.769h-6.816v-5.378c0-0.699-0.572-1.264-1.28-1.264h-7.68c-0.708 0-1.28 0.565-1.28 1.264v5.378h-6.8v-9.57c0.116 0.055 0.236 0.111 0.36 0.158 0.892 0.371 1.84 0.557 2.816 0.557s1.92-0.186 2.816-0.557c0.552-0.229 1.072-0.522 1.548-0.873 0.008-0.004 0.016-0.004 0.024 0 0.477 0.353 0.997 0.646 1.548 0.873 0.892 0.371 1.84 0.557 2.816 0.557s1.92-0.186 2.816-0.557c0.552-0.229 1.072-0.522 1.548-0.873 0.008-0.004 0.016-0.004 0.024 0 0.477 0.353 0.997 0.646 1.548 0.873 0.892 0.371 1.84 0.557 2.816 0.557s1.92-0.186 2.816-0.557c0.12-0.051 0.24-0.103 0.36-0.158v9.57zM29.12 12.79c0 2.363-1.96 4.279-4.372 4.279-1.632 0-3.056-0.873-3.808-2.169-0.116-0.198-0.324-0.32-0.556-0.32h-0.024c-0.228 0-0.44 0.122-0.556 0.32-0.384 0.661-0.938 1.21-1.606 1.591s-1.427 0.58-2.198 0.578c-1.628 0-3.048-0.869-3.8-2.161-0.12-0.201-0.336-0.328-0.572-0.328s-0.456 0.126-0.572 0.328c-0.386 0.659-0.941 1.205-1.609 1.585s-1.425 0.578-2.195 0.577c-2.412 0-4.372-1.916-4.372-4.279v-3.603c0-0.012 0.008-0.020 0.020-0.020h26.2c0.012 0 0.020 0.008 0.020 0.020v3.603z"></path>
</symbol>
<symbol id="icon-case" viewBox="0 0 37 32">
<path fill="#0d5c63" style="fill: var(--color2, #0d5c63)" d="M33.24 6.654h-3.957v-3.957c0-0.7-0.278-1.371-0.773-1.865s-1.166-0.773-1.865-0.773h-15.827c-0.7 0-1.371 0.278-1.865 0.773s-0.773 1.166-0.773 1.865v3.957h-3.957c-1.049 0-2.056 0.417-2.798 1.159s-1.159 1.748-1.159 2.798v18.465c0 0.7 0.278 1.371 0.773 1.865s1.166 0.773 1.865 0.773h31.654c0.7 0 1.371-0.278 1.865-0.773s0.773-1.166 0.773-1.865v-18.465c0-1.049-0.417-2.056-1.159-2.798s-1.748-1.159-2.798-1.159zM10.818 2.697h15.827v3.957h-15.827v-3.957zM34.559 29.076h-31.654v-11.87h10.551v6.595h10.551v-6.595h10.551v11.87zM16.094 17.205h5.276v3.957h-5.276v-3.957zM2.905 14.568v-3.957c0-0.35 0.139-0.685 0.386-0.933s0.583-0.386 0.933-0.386h29.016c0.35 0 0.685 0.139 0.933 0.386s0.386 0.583 0.386 0.933v3.957h-31.654z"></path>
</symbol>
</defs>
</svg>
